<?xml version="1.0" encoding="UTF-8" standalone="no"?>
<svg
   xmlns:dc="http://purl.org/dc/elements/1.1/"
   xmlns:cc="http://creativecommons.org/ns#"
   xmlns:rdf="http://www.w3.org/1999/02/22-rdf-syntax-ns#"
   xmlns:svg="http://www.w3.org/2000/svg"
   xmlns="http://www.w3.org/2000/svg"
   xmlns:sodipodi="http://sodipodi.sourceforge.net/DTD/sodipodi-0.dtd"
   xmlns:inkscape="http://www.inkscape.org/namespaces/inkscape"
   width="716"
   height="169"
   viewBox="0 0 716 169"
   fill="none"
   version="1.1"
   id="svg831"
   sodipodi:docname="AdisSVG.svg"
   inkscape:version="0.92.5 (2060ec1f9f, 2020-04-08)">
  <metadata
     id="metadata837">
    <rdf:RDF>
      <cc:Work
         rdf:about="">
        <dc:format>image/svg+xml</dc:format>
        <dc:type
           rdf:resource="http://purl.org/dc/dcmitype/StillImage" />
        <dc:title></dc:title>
      </cc:Work>
    </rdf:RDF>
  </metadata>
  <defs
     id="defs835" />
  <sodipodi:namedview
     pagecolor="#ffffff"
     bordercolor="#666666"
     borderopacity="1"
     objecttolerance="10"
     gridtolerance="10"
     guidetolerance="10"
     inkscape:pageopacity="0"
     inkscape:pageshadow="2"
     inkscape:window-width="1366"
     inkscape:window-height="705"
     id="namedview833"
     showgrid="false"
     inkscape:zoom="0.68933035"
     inkscape:cx="251.17326"
     inkscape:cy="146.21349"
     inkscape:window-x="-8"
     inkscape:window-y="-8"
     inkscape:window-maximized="1"
     inkscape:current-layer="svg831" />
  <g
     id="g6544">
    <path
       id="path827"
       fill="#F55951"
       d="M71.28 94.896C71.568 97.776 72.24 100.656 73.296 103.536C74.448 106.416 76.176 110.4 78.48 115.488C80.016 118.656 81.408 121.824 82.656 124.992C82.656 126.144 82.224 126.912 81.36 127.296C80.592 127.68 79.44 127.872 77.904 127.872C77.04 127.872 76.224 127.728 75.456 127.44C74.688 127.152 74.208 126.96 74.016 126.864C72.672 126.192 71.472 125.856 70.416 125.856C69.936 125.856 69.216 126 68.256 126.288C67.392 126.576 66.768 126.72 66.384 126.72C65.904 126.72 65.376 126.144 64.8 124.992C64.32 123.744 63.696 121.92 62.928 119.52C62.64 118.848 62.352 118.176 62.064 117.504C61.872 116.736 61.632 115.968 61.344 115.2C61.152 114.816 60.528 113.232 59.472 110.448C58.416 107.664 57.072 105.264 55.44 103.248C53.904 101.232 52.32 100.224 50.688 100.224C48.768 100.224 46.944 100.368 45.216 100.656C44.544 100.752 43.728 100.848 42.768 100.944C41.904 101.04 40.848 101.088 39.6 101.088C36.912 101.088 34.128 100.944 31.248 100.656C25.488 100.368 22.272 100.224 21.6 100.224C20.64 103.872 19.824 106.656 19.152 108.576C18.48 110.4 17.184 113.52 15.264 117.936C14.88 118.896 14.592 120.144 14.4 121.68C14.112 123.696 13.68 125.232 13.104 126.288C12.624 127.344 11.76 127.872 10.512 127.872C8.784 127.872 7.296 127.728 6.048 127.44C4.8 127.248 3.12 126.768 1.008 126C1.008 124.368 1.344 122.544 2.016 120.528C2.688 118.416 3.696 115.68 5.04 112.32L6.336 109.152C7.104 106.848 7.872 104.256 8.64 101.376C9.504 98.496 10.08 96.528 10.368 95.472C11.808 89.424 13.152 84.768 14.4 81.504C15.072 79.68 16.08 77.232 17.424 74.16C17.712 73.392 18.336 71.904 19.296 69.696C20.256 67.392 21.024 65.088 21.6 62.784L22.32 62.064C22.512 61.392 22.752 60.144 23.04 58.32C23.328 56.4 23.808 54.816 24.48 53.568C25.152 52.32 26.016 51.696 27.072 51.696C27.072 50.16 27.936 46.512 29.664 40.752C31.488 34.992 32.88 31.728 33.84 30.96C38.832 30.96 42.144 31.056 43.776 31.248C45.504 31.44 46.848 32.112 47.808 33.264C48.768 34.416 49.776 36.624 50.832 39.888L52.56 43.344L52.416 44.64C52.992 44.64 53.424 45.024 53.712 45.792C54.096 46.56 54.48 47.712 54.864 49.248C55.248 50.88 55.632 52.272 56.016 53.424C56.496 54.48 57.12 55.296 57.888 55.872C57.696 55.872 57.504 55.968 57.312 56.16C57.12 56.352 56.976 56.496 56.88 56.592C56.88 57.264 57.168 58.272 57.744 59.616C58.416 60.768 58.752 61.824 58.752 62.784H60.624C60.432 62.976 60.24 63.264 60.048 63.648C59.856 64.032 59.76 64.368 59.76 64.656C59.76 65.136 60.336 66.144 61.488 67.68C62.64 69.408 63.216 70.464 63.216 70.848L63.792 74.016C64.368 77.952 65.088 80.784 65.952 82.512C66.72 83.952 67.536 85.008 68.4 85.68C69.072 86.256 69.6 87.072 69.984 88.128C70.464 89.184 70.896 91.44 71.28 94.896ZM31.248 55.872C28.752 55.872 27.504 56.928 27.504 59.04L27.648 60.048C30.048 59.376 32.304 58.176 34.416 56.448C36.528 54.72 38.16 52.704 39.312 50.4L49.968 46.8C49.968 43.536 49.008 40.992 47.088 39.168C45.264 37.344 44.352 36.384 44.352 36.288L42.624 36.432C42.336 36.432 41.52 36.144 40.176 35.568C38.928 34.896 38.016 34.56 37.44 34.56C36.576 34.56 35.952 35.04 35.568 36C35.184 36.96 34.848 38.352 34.56 40.176C34.464 41.232 34.272 42.24 33.984 43.2C33.792 44.16 33.456 44.784 32.976 45.072H36.576C36.192 45.744 35.664 46.32 34.992 46.8C34.416 47.184 33.84 47.52 33.264 47.808C31.92 48.48 30.912 49.248 30.24 50.112C29.664 50.88 29.376 52.176 29.376 54C29.376 54.672 29.472 55.152 29.664 55.44C29.952 55.728 30.48 55.872 31.248 55.872ZM41.184 51.264C41.184 51.744 41.472 52.512 42.048 53.568C42.72 54.528 43.248 55.008 43.632 55.008C44.304 55.008 45.6 53.952 47.52 51.84C48.672 50.496 49.776 49.44 50.832 48.672C46.512 48.672 43.296 49.536 41.184 51.264ZM51.696 75.312C55.248 72.336 57.024 69.36 57.024 66.384C57.024 64.656 56.88 63.168 56.592 61.92C56.4 60.672 55.776 60.048 54.72 60.048C54.336 60.144 53.856 60.384 53.28 60.768C52.704 61.152 52.176 61.584 51.696 62.064L55.152 58.464C55.152 58.08 54.624 56.64 53.568 54.144C52.608 51.648 51.984 50.4 51.696 50.4H50.832L44.64 56.592L44.496 57.168C44.496 57.648 44.784 58.128 45.36 58.608C46.032 58.992 46.656 59.232 47.232 59.328C46.752 59.424 46.464 59.712 46.368 60.192C46.272 60.672 46.224 61.152 46.224 61.632C46.224 63.744 46.704 64.8 47.664 64.8C47.952 64.8 48.72 64.416 49.968 63.648C49.968 64.32 49.776 65.136 49.392 66.096C49.104 67.056 48.96 67.824 48.96 68.4C49.632 68.4 50.16 68.352 50.544 68.256C51.024 68.16 51.456 68.064 51.84 67.968C53.184 67.584 54.288 67.392 55.152 67.392C54.864 67.968 54.24 68.448 53.28 68.832C52.416 69.12 51.744 69.408 51.264 69.696C50.88 69.984 50.688 70.608 50.688 71.568V72.432C50.688 73.68 51.024 74.64 51.696 75.312ZM32.112 62.784C31.824 63.552 31.344 64.08 30.672 64.368C30 64.656 29.04 64.896 27.792 65.088C26.256 65.376 25.104 65.76 24.336 66.24C23.664 66.72 23.328 67.68 23.328 69.12C23.328 69.312 23.424 69.504 23.616 69.696C23.904 69.888 24.096 69.984 24.192 69.984C32.064 65.376 36 61.2 36 57.456H34.992C34.416 57.456 32.832 58.368 30.24 60.192C27.744 62.016 26.496 63.216 26.496 63.792C27.264 63.792 28.224 63.648 29.376 63.36C30.528 62.976 31.44 62.784 32.112 62.784ZM39.312 58.464C38.544 63.072 37.2 67.728 35.28 72.432C33.456 77.04 31.248 81.264 28.656 85.104L28.512 85.536C28.512 86.976 30.288 87.696 33.84 87.696C35.664 87.696 37.296 87.648 38.736 87.552C40.176 87.456 41.376 87.36 42.336 87.264C46.176 86.88 49.056 86.688 50.976 86.688C50.976 84.96 50.064 81.984 48.24 77.76C48.048 77.376 47.664 76.512 47.088 75.168C46.512 73.728 46.224 72.624 46.224 71.856L39.312 58.464ZM31.248 66.24C30.192 67.488 28.512 68.88 26.208 70.416C25.344 70.992 24.576 71.568 23.904 72.144C23.232 72.72 22.896 73.248 22.896 73.728C26.064 73.728 28.224 73.296 29.376 72.432C30.528 71.472 31.44 69.408 32.112 66.24H31.248ZM53.28 76.608C53.28 76.608 53.376 76.848 53.568 77.328C53.76 77.712 54.048 77.904 54.432 77.904C55.008 77.904 55.92 77.76 57.168 77.472C58.416 77.184 59.28 77.04 59.76 77.04L54.432 79.776L54.288 80.064C54.288 80.544 54.48 81.072 54.864 81.648C55.248 82.224 55.536 82.512 55.728 82.512C57.168 82.512 58.368 81.888 59.328 80.64C60.288 79.392 60.768 78.048 60.768 76.608C60.768 75.264 60.528 73.824 60.048 72.288C59.568 70.752 58.848 69.984 57.888 69.984C57.216 70.848 56.064 72.624 54.432 75.312C53.664 76.08 53.28 76.512 53.28 76.608ZM22.32 75.312C21.456 75.312 20.784 75.792 20.304 76.752C19.92 77.616 19.584 78.528 19.296 79.488C19.008 80.448 18.816 81.12 18.72 81.504C19.584 81.024 21.072 80.16 23.184 78.912C25.392 77.568 27.216 76.368 28.656 75.312H22.32ZM27.648 77.904C27.264 78.096 26.64 78.384 25.776 78.768C24.912 79.152 24.24 79.632 23.76 80.208C23.28 80.688 23.04 81.312 23.04 82.08C24 82.08 25.008 81.696 26.064 80.928C27.216 80.16 27.792 79.344 27.792 78.48L27.648 77.904ZM56.88 97.488C57.264 98.256 57.648 98.784 58.032 99.072C58.416 99.264 58.992 99.36 59.76 99.36C61.392 99.36 62.688 98.688 63.648 97.344C64.608 95.904 65.088 94.368 65.088 92.736C65.088 91.008 64.944 89.472 64.656 88.128C64.368 86.784 63.984 85.392 63.504 83.952C63.024 82.416 62.688 81.312 62.496 80.64C61.344 80.64 60.24 81.072 59.184 81.936C58.128 82.8 57.36 83.856 56.88 85.104H61.344V85.968C60.96 86.448 59.76 87.84 57.744 90.144C55.728 92.352 54.288 94.224 53.424 95.76L55.152 95.904C56.304 95.904 57.84 95.424 59.76 94.464C61.68 93.6 63.12 93.168 64.08 93.168C63.024 94.512 60.624 95.952 56.88 97.488ZM23.328 83.376C20.832 83.376 18.96 83.76 17.712 84.528C16.56 85.2 15.984 86.592 15.984 88.704L16.128 90.432C16.704 90.048 17.616 89.472 18.864 88.704C20.208 87.936 21.312 87.12 22.176 86.256C23.136 85.392 23.808 84.432 24.192 83.376H23.328ZM58.896 86.976C57.552 86.976 56.88 87.552 56.88 88.704L58.896 86.976ZM21.6 92.16V88.704L17.856 92.16H21.6ZM40.896 97.2C43.104 97.2 45.024 96.912 46.656 96.336C48.384 95.76 49.776 94.704 50.832 93.168C50.544 92.592 49.824 92.16 48.672 91.872C47.616 91.488 46.8 91.296 46.224 91.296C45.648 91.296 44.832 91.824 43.776 92.88C42.72 93.84 42.096 94.512 41.904 94.896V93.168C40.368 93.84 39.168 94.416 38.304 94.896C37.536 95.376 37.152 96.096 37.152 97.056L40.896 97.2ZM24.48 96.624C26.016 96.624 27.504 96.432 28.944 96.048C30.48 95.664 31.248 94.944 31.248 93.888C31.248 93.312 31.056 92.88 30.672 92.592C30.384 92.208 30 92.016 29.52 92.016C29.232 92.016 28.176 92.496 26.352 93.456C24.528 94.32 23.184 95.088 22.32 95.76C22.512 96.336 22.944 96.624 23.616 96.624H24.48ZM36.576 92.88C35.616 92.784 34.752 93.072 33.984 93.744C33.216 94.32 32.832 95.136 32.832 96.192C34.752 96.192 36.624 95.184 38.448 93.168L36.576 92.88ZM14.4 98.352C14.592 98.256 15.312 97.92 16.56 97.344C17.904 96.672 18.96 95.856 19.728 94.896C19.536 94.224 18.816 93.888 17.568 93.888C16.512 93.888 15.696 94.224 15.12 94.896C14.544 95.568 14.256 96.432 14.256 97.488L14.4 98.352ZM50.544 96.336C51.792 96.336 52.512 95.568 52.704 94.032C51.264 94.128 50.544 94.896 50.544 96.336ZM61.344 105.408C61.344 106.752 61.872 107.424 62.928 107.424C63.888 107.424 64.896 106.56 65.952 104.832C67.104 103.104 67.68 101.712 67.68 100.656V99.936C67.68 97.632 67.248 96.48 66.384 96.48C66.288 96.576 65.376 97.2 63.648 98.352C62.016 99.408 61.008 100.32 60.624 101.088C60.72 101.088 60.864 101.232 61.056 101.52C61.248 101.808 61.536 101.952 61.92 101.952C62.496 101.76 63.312 101.616 64.368 101.52C65.424 101.328 66.192 101.184 66.672 101.088C66.192 101.856 65.28 102.432 63.936 102.816C62.976 103.2 62.304 103.584 61.92 103.968C61.536 104.256 61.344 104.736 61.344 105.408ZM13.536 101.952C15.936 101.952 18 100.752 19.728 98.352H18.72C17.376 98.352 15.648 99.552 13.536 101.952ZM11.664 108.144C12.528 107.664 13.536 106.944 14.688 105.984C15.936 104.928 16.752 104.208 17.136 103.824L15.264 103.68C14.4 103.68 13.536 104.16 12.672 105.12C11.904 106.08 11.52 106.704 11.52 106.992L11.664 108.144ZM69.12 103.68C68.736 103.68 68.16 104.16 67.392 105.12C66.624 106.08 65.952 107.04 65.376 108C64.8 108.864 64.368 109.536 64.08 110.016C65.232 110.016 66.576 109.776 68.112 109.296C69.648 108.72 70.416 107.952 70.416 106.992C70.416 104.784 69.984 103.68 69.12 103.68ZM67.536 115.2L72.144 111.024V109.584C70.992 109.584 69.504 109.872 67.68 110.448C65.952 111.024 65.088 111.744 65.088 112.608C65.088 113.088 65.328 113.664 65.808 114.336C66.288 115.008 66.768 115.344 67.248 115.344L67.536 115.2ZM73.872 121.536C75.216 121.536 75.888 121.008 75.888 119.952C75.888 118.32 74.928 115.872 73.008 112.608C72.816 112.8 72.24 113.184 71.28 113.76C70.416 114.24 69.696 114.816 69.12 115.488C68.544 116.064 68.256 116.64 68.256 117.216C69.504 117.216 70.8 116.88 72.144 116.208L68.688 119.808C69.072 120.96 70.8 121.536 73.872 121.536ZM8.064 119.808C8.16 119.616 8.832 118.848 10.08 117.504C11.424 116.064 12.24 114.768 12.528 113.616L11.232 113.472C9.888 113.472 8.736 114.24 7.776 115.776C6.816 117.312 6.336 118.8 6.336 120.24C6.336 120.912 6.384 121.44 6.48 121.824C6.672 122.208 7.056 122.4 7.632 122.4C8.112 122.4 8.496 122.064 8.784 121.392C9.072 120.624 9.216 120.096 9.216 119.808H8.064ZM150.86 72.72C150.86 76.848 150.38 83.136 149.42 91.584C149.324 92.64 149.084 95.136 148.7 99.072C148.316 103.008 148.124 106.704 148.124 110.16C148.124 111.696 148.316 114 148.7 117.072C149.084 120.336 149.276 122.688 149.276 124.128C149.276 125.376 149.132 126.192 148.844 126.576C148.556 126.96 147.788 127.152 146.54 127.152C143.276 127.152 141.02 126.912 139.772 126.432C138.524 125.952 136.892 124.656 134.876 122.544C134.012 122.544 131.9 123.168 128.54 124.416C126.812 124.992 124.988 125.568 123.068 126.144C121.244 126.72 119.708 127.008 118.46 127.008C117.788 127.008 117.308 126.768 117.02 126.288C116.252 126.384 115.004 126.432 113.276 126.432C107.516 126.432 102.428 124.848 98.0123 121.68C93.6923 118.512 90.3323 114.336 87.9323 109.152C85.5323 103.968 84.3323 98.496 84.3323 92.736C84.3323 90.144 84.6683 86.928 85.3403 83.088C86.1083 79.248 86.9243 76.128 87.7883 73.728C88.3643 73.056 89.0363 72.24 89.8043 71.28C90.5723 70.224 91.1003 69.408 91.3883 68.832V68.4C93.3083 65.424 95.5163 63.36 98.0123 62.208C100.508 61.056 103.916 60.144 108.236 59.472C108.812 59.376 109.34 59.232 109.82 59.04C110.3 58.848 110.732 58.704 111.116 58.608C112.652 57.936 113.804 57.6 114.572 57.6V58.608C115.148 57.936 116.06 57.6 117.308 57.6C118.748 57.6 120.14 57.792 121.484 58.176C122.828 58.56 124.508 59.136 126.524 59.904C127.964 60.48 129.452 61.008 130.988 61.488C132.62 61.872 134.108 62.064 135.452 62.064L135.74 45.936L135.884 40.608C135.884 33.696 135.26 28.752 134.012 25.776H148.124C148.316 26.16 148.508 26.928 148.7 28.08C148.892 29.136 149.036 30.144 149.132 31.104C149.036 31.2 148.988 31.344 148.988 31.536C148.988 31.824 149.132 32.256 149.42 32.832C149.708 33.408 149.9 33.84 149.996 34.128C149.996 34.416 149.9 34.896 149.708 35.568C149.612 36.144 149.42 36.72 149.132 37.296C149.132 41.232 149.42 47.232 149.996 55.296C150.572 62.976 150.86 68.784 150.86 72.72ZM141.788 29.088C140.348 29.088 139.436 29.232 139.052 29.52C138.668 29.808 138.476 30.624 138.476 31.968C138.476 34.56 139.052 35.856 140.204 35.856L141.068 35.568L140.348 37.296H142.94C141.98 37.488 141.164 37.92 140.492 38.592C139.916 39.264 139.628 40.032 139.628 40.896C141.068 40.896 142.268 40.176 143.228 38.736C144.284 37.2 144.812 35.664 144.812 34.128C144.812 32.4 144.668 31.152 144.38 30.384C144.092 29.52 143.228 29.088 141.788 29.088ZM141.068 44.352C143.66 44.352 144.956 42.864 144.956 39.888H143.804L141.068 44.352ZM140.348 47.952C140.348 48.432 140.396 49.104 140.492 49.968C140.684 50.736 140.876 51.216 141.068 51.408C142.892 50.352 143.804 48.768 143.804 46.656C142.94 46.656 142.124 46.8 141.356 47.088C140.684 47.28 140.348 47.568 140.348 47.952ZM143.372 57.456C143.372 58.032 143.276 58.416 143.084 58.608C142.988 58.8 142.7 58.992 142.22 59.184C141.836 59.376 141.452 59.76 141.068 60.336L142.076 61.344L144.668 58.608V51.12C143.9 51.12 143.084 51.792 142.22 53.136C141.452 54.48 141.068 55.584 141.068 56.448C141.068 57.216 141.404 57.6 142.076 57.6L143.372 57.456ZM142.076 68.4C141.02 68.88 139.244 69.312 136.748 69.696C135.116 69.888 133.772 70.128 132.716 70.416C131.66 70.704 130.652 71.232 129.692 72C130.076 72.672 130.7 73.392 131.564 74.16C132.428 74.832 133.244 75.264 134.012 75.456C137.564 72.768 141.116 70.704 144.668 69.264C144.476 69.072 144.284 68.832 144.092 68.544C143.9 68.16 143.804 67.824 143.804 67.536C143.804 67.056 144.092 66.096 144.668 64.656C145.34 63.216 145.676 62.112 145.676 61.344H143.804L139.34 66.528L139.196 67.104C139.196 67.392 139.532 67.68 140.204 67.968C140.876 68.256 141.5 68.4 142.076 68.4ZM104.78 65.808L102.764 66.528C103.34 66.72 103.964 66.912 104.636 67.104C105.308 67.296 105.884 67.44 106.364 67.536C107.708 67.536 109.244 66.864 110.972 65.52C111.164 65.424 111.596 65.136 112.268 64.656C113.036 64.176 113.804 63.936 114.572 63.936H124.22C123.548 63.744 122.588 63.456 121.34 63.072C120.092 62.688 118.988 62.4 118.028 62.208C116.972 62.208 115.868 62.352 114.716 62.64C113.564 62.928 112.604 63.36 111.836 63.936V63.072C107.42 63.648 104.396 64.272 102.764 64.944L104.78 65.808ZM126.812 65.664C125.852 65.664 125.324 65.952 125.228 66.528C125.42 67.008 125.804 67.728 126.38 68.688C127.052 69.648 127.676 70.128 128.252 70.128L133.148 68.4C132.284 68.4 131.708 68.304 131.42 68.112C131.132 67.92 130.796 67.584 130.412 67.104C130.124 66.624 129.74 66.288 129.26 66.096C128.876 65.808 128.06 65.664 126.812 65.664ZM100.46 67.536C98.8283 67.536 97.1483 68.352 95.4203 69.984C93.6923 71.616 92.2523 73.584 91.1003 75.888C90.0443 78.096 89.5163 80.064 89.5163 81.792C89.5163 81.888 89.6603 82.08 89.9483 82.368C90.3323 82.56 90.6683 82.656 90.9563 82.656C92.1083 82.656 93.8843 81.6 96.2843 79.488C98.6843 77.28 99.9803 75.648 100.172 74.592L101.18 72.72C101.468 72.528 102.044 72.288 102.908 72C103.868 71.712 104.588 71.424 105.068 71.136C105.548 70.752 105.788 70.272 105.788 69.696L105.644 69.264C104.204 69.84 102.092 70.128 99.3083 70.128C100.076 70.128 100.604 69.984 100.892 69.696C101.18 69.408 101.324 68.976 101.324 68.4C101.324 68.016 101.276 67.776 101.18 67.68C101.084 67.584 100.844 67.536 100.46 67.536ZM102.476 104.112C103.916 106.704 105.164 108.624 106.22 109.872C107.276 111.024 108.764 111.936 110.684 112.608C112.7 113.28 115.484 113.616 119.036 113.616C122.012 113.616 124.796 112.8 127.388 111.168C129.98 109.536 132.044 107.376 133.58 104.688C135.116 102 135.884 99.12 135.884 96.048C135.884 92.976 135.596 90.096 135.02 87.408C134.54 84.72 133.34 82.224 131.42 79.92C129.308 77.424 126.764 75.024 123.788 72.72C120.908 70.32 118.412 69.12 116.3 69.12C114.668 69.12 112.844 69.984 110.828 71.712C108.812 73.44 107.66 74.4 107.372 74.592C104.3 77.184 102.284 79.776 101.324 82.368C100.46 84.864 100.028 88.224 100.028 92.448L100.172 100.368L102.476 104.112ZM140.348 74.736C142.46 74.736 144.044 74.496 145.1 74.016C146.156 73.536 146.684 72.384 146.684 70.56C145.148 70.56 143.804 70.896 142.652 71.568C141.5 72.144 140.108 73.152 138.476 74.592L140.348 74.736ZM139.34 80.928C140.876 80.928 142.316 80.64 143.66 80.064C145.1 79.392 145.82 78.288 145.82 76.752C144.572 76.752 143.372 77.184 142.22 78.048C141.068 78.816 140.108 79.776 139.34 80.928ZM134.876 79.344C137.18 79.344 139.004 78.672 140.348 77.328H139.34C138.668 77.328 137.756 77.472 136.604 77.76C135.548 77.952 134.972 78.096 134.876 78.192V79.344ZM140.78 93.456C142.892 93.456 144.236 92.88 144.812 91.728C145.388 90.576 145.676 88.896 145.676 86.688L145.532 81.792C144.188 82.08 142.94 82.8 141.788 83.952C140.732 85.008 140.204 86.208 140.204 87.552C140.204 88.512 140.348 89.136 140.636 89.424C140.924 89.616 141.692 89.712 142.94 89.712C141.5 91.152 140.78 92.4 140.78 93.456ZM96.8603 82.368C95.0363 82.368 93.2123 83.04 91.3883 84.384L93.5483 84.528H94.1243C95.0843 84.528 95.7563 84.432 96.1403 84.24C96.6203 83.952 96.8603 83.328 96.8603 82.368ZM89.5163 87.12V89.712L95.1323 87.12H89.5163ZM96.1403 89.424C94.7963 89.424 93.3083 89.76 91.6763 90.432C90.1403 91.008 89.3723 91.824 89.3723 92.88L89.5163 93.312L95.1323 94.032C95.4203 94.032 95.6603 93.552 95.8523 92.592C96.0443 91.632 96.1403 90.576 96.1403 89.424ZM90.9563 95.04C89.9003 95.04 89.2283 95.28 88.9403 95.76C88.6523 96.144 88.5083 96.912 88.5083 98.064C89.3723 98.064 90.1403 97.632 90.8123 96.768C91.5803 95.808 92.0603 95.232 92.2523 95.04H90.9563ZM140.348 96.048C140.732 96.048 141.596 95.712 142.94 95.04H142.076C141.596 95.04 141.212 95.088 140.924 95.184C140.636 95.28 140.444 95.568 140.348 96.048ZM95.1323 96.048C91.1003 98.16 89.0843 100.272 89.0843 102.384C91.3883 102.384 93.0683 102.096 94.1243 101.52C95.2763 100.944 95.8523 99.648 95.8523 97.632C95.8523 96.672 95.6123 96.144 95.1323 96.048ZM140.636 98.928C141.788 98.928 142.604 98.784 143.084 98.496C143.564 98.112 143.804 97.296 143.804 96.048C143.036 96.24 142.316 96.576 141.644 97.056C140.972 97.536 140.636 98.16 140.636 98.928ZM138.476 104.832C138.764 104.736 139.388 104.448 140.348 103.968C141.308 103.488 142.124 102.912 142.796 102.24C143.468 101.568 143.804 100.848 143.804 100.08C141.98 100.08 140.636 100.416 139.772 101.088C138.908 101.664 138.476 102.912 138.476 104.832ZM90.5243 104.4C90.5243 107.184 91.6763 108.576 93.9803 108.576C95.7083 108.576 97.2443 108.192 98.5883 107.424L97.5803 105.696C96.1403 106.272 95.3243 106.848 95.1323 107.424L94.9883 106.992C95.0843 106.704 95.2763 106.224 95.5643 105.552C95.9483 104.784 96.3323 104.208 96.7163 103.824C96.5243 103.248 95.9003 102.96 94.8443 102.96C91.9643 102.96 90.5243 103.44 90.5243 104.4ZM141.5 105.84C143.036 105.84 143.804 105.168 143.804 103.824C142.748 103.824 141.596 104.448 140.348 105.696L141.5 105.84ZM92.9723 111.168C93.2603 111.456 93.6443 111.792 94.1243 112.176C94.6043 112.56 94.9883 112.8 95.2763 112.896C96.0443 112.896 96.8123 112.608 97.5803 112.032C98.4443 111.36 99.0203 110.688 99.3083 110.016C99.0203 109.536 98.6363 109.296 98.1562 109.296C97.7723 109.296 96.9563 109.584 95.7083 110.16C94.5563 110.64 93.6443 110.976 92.9723 111.168ZM139.34 112.032C140.108 112.032 140.828 111.984 141.5 111.888C142.268 111.792 143.036 111.552 143.804 111.168C143.804 110.4 143.66 109.92 143.372 109.728C143.18 109.44 142.748 109.296 142.076 109.296C140.636 109.296 139.148 110.16 137.612 111.888L139.34 112.032ZM124.22 121.68C125.372 121.584 126.908 120.912 128.828 119.664C130.748 118.32 132.428 116.784 133.868 115.056C135.308 113.328 136.028 111.84 136.028 110.592L135.884 110.016C135.308 110.592 133.916 111.84 131.708 113.76C127.292 117.216 124.796 119.856 124.22 121.68ZM96.7163 114.624C96.9083 115.104 97.1003 115.392 97.2923 115.488C97.5803 115.584 98.0123 115.632 98.5883 115.632C99.1643 115.632 99.7883 115.44 100.46 115.056C101.132 114.672 101.66 114.192 102.044 113.616H101.324C99.6923 113.616 98.1563 113.952 96.7163 114.624ZM100.172 117.216C100.556 117.696 101.036 118.032 101.612 118.224C101.708 118.224 102.38 118.032 103.628 117.648C104.876 117.264 105.788 116.544 106.364 115.488C105.596 114.816 104.732 114.48 103.772 114.48C103.1 114.48 102.572 114.624 102.188 114.912C101.804 115.2 101.42 115.632 101.036 116.208C100.652 116.688 100.364 117.024 100.172 117.216ZM138.476 117.504C139.148 117.504 139.772 117.216 140.348 116.64C141.02 115.968 141.356 115.296 141.356 114.624H138.476V117.504ZM141.788 118.368C143.132 118.368 143.804 117.648 143.804 116.208C143.228 116.208 142.748 116.4 142.364 116.784C141.98 117.168 141.788 117.696 141.788 118.368ZM105.788 120.816C106.652 120.816 107.228 120.576 107.516 120.096C107.804 119.52 108.044 118.56 108.236 117.216C108.14 117.312 107.468 117.6 106.22 118.08C105.068 118.56 104.3 119.232 103.916 120.096C104.012 120.576 104.636 120.816 105.788 120.816ZM115.868 119.664C114.428 119.664 113.66 120.336 113.564 121.68C114.236 121.584 114.764 121.392 115.148 121.104C115.628 120.72 115.868 120.24 115.868 119.664ZM115.148 123.696C117.164 123.696 118.748 123.456 119.9 122.976C121.052 122.496 121.964 121.536 122.636 120.096L120.62 119.952C119.468 119.952 118.268 120.288 117.02 120.96C115.772 121.632 115.148 122.544 115.148 123.696ZM110.108 122.544C110.684 122.544 111.164 122.352 111.548 121.968C112.028 121.584 112.268 121.104 112.268 120.528C111.596 120.528 111.02 120.624 110.54 120.816C110.06 121.008 109.58 121.296 109.1 121.68C109.1 121.872 109.196 122.064 109.388 122.256C109.58 122.448 109.82 122.544 110.108 122.544ZM143.804 122.544C143.612 121.872 142.988 121.536 141.932 121.536L140.348 121.68V122.544H143.804ZM174.086 29.664C174.182 29.472 175.19 29.28 177.11 29.088C179.03 28.8 180.662 28.656 182.006 28.656C182.774 28.656 183.686 28.896 184.742 29.376C185.894 29.76 186.47 30.144 186.47 30.528V41.184C186.47 42.432 185.606 43.056 183.878 43.056C181.574 43.056 179.03 42.864 176.246 42.48C173.558 42.096 172.214 41.376 172.214 40.32V31.248L174.086 29.664ZM175.382 33.12C175.382 34.08 175.574 35.088 175.958 36.144C176.342 37.104 176.966 37.584 177.83 37.584C179.558 37.584 180.758 37.44 181.43 37.152C182.198 36.864 182.582 36.144 182.582 34.992C182.582 34.512 182.39 33.888 182.006 33.12C181.718 33.216 181.334 33.408 180.854 33.696C180.47 33.984 179.99 34.128 179.414 34.128L180.422 33.12H175.382ZM175.814 124.56C175.622 123.888 175.19 123.072 174.518 122.112C173.846 121.152 173.414 120.24 173.222 119.376C171.878 113.808 171.014 108 170.63 101.952C170.246 95.808 170.054 88.56 170.054 80.208V75.6C170.054 69.552 170.582 64.944 171.638 61.776C172.694 58.608 174.998 57.024 178.55 57.024C182.102 57.024 184.502 58.56 185.75 61.632C187.094 64.608 187.766 68.496 187.766 73.296C187.766 78.576 187.382 84.384 186.614 90.72C185.942 95.616 185.606 99.936 185.606 103.68C185.606 106.08 185.798 109.584 186.182 114.192C186.278 115.344 186.374 116.736 186.47 118.368C186.566 120 186.614 121.92 186.614 124.128C186.614 125.664 185.99 126.432 184.742 126.432C183.59 126.24 182.102 125.952 180.278 125.568C178.55 125.184 177.062 124.848 175.814 124.56ZM177.254 66.096C181.094 66.096 183.014 65.52 183.014 64.368C183.014 63.216 182.87 62.448 182.582 62.064C182.39 61.68 181.958 61.488 181.286 61.488C181.094 61.488 180.662 61.68 179.99 62.064C179.318 62.352 178.838 62.496 178.55 62.496C178.358 62.496 178.118 62.352 177.83 62.064C177.542 61.68 177.158 61.488 176.678 61.488C176.006 61.488 175.478 61.632 175.094 61.92C174.806 62.112 174.47 62.592 174.086 63.36C174.854 64.128 175.574 64.512 176.246 64.512L176.678 64.368L175.814 66.096H177.254ZM173.942 70.272C173.942 70.464 174.038 70.704 174.23 70.992C174.518 71.184 174.758 71.28 174.95 71.28C175.814 71.28 176.87 70.656 178.118 69.408C179.366 68.064 180.134 67.248 180.422 66.96H179.846C179.078 66.96 177.926 67.2 176.39 67.68C174.854 68.16 174.086 68.976 174.086 70.128L173.942 70.272ZM183.302 67.248C180.806 67.248 178.31 69.456 175.814 73.872C177.158 73.392 178.694 73.152 180.422 73.152C181.286 73.152 181.91 73.056 182.294 72.864C182.678 72.672 182.918 72.192 183.014 71.424C183.206 70.56 183.302 69.168 183.302 67.248ZM174.086 79.2C174.086 79.392 174.182 79.632 174.374 79.92C174.662 80.112 174.854 80.208 174.95 80.208C177.062 79.056 179.126 77.328 181.142 75.024L179.846 74.88C178.31 74.88 176.966 75.264 175.814 76.032C174.662 76.704 174.086 77.76 174.086 79.2ZM183.014 75.888C180.422 77.232 178.646 78.96 177.686 81.072L178.982 81.216C179.654 81.216 180.47 81.168 181.43 81.072C182.486 80.88 183.014 80.592 183.014 80.208V75.888ZM177.686 89.28C182.006 89.28 184.166 87.168 184.166 82.944H183.014L177.686 88.272V89.28ZM177.686 83.664C175.766 83.664 174.806 84.48 174.806 86.112L174.95 87.552L178.55 83.808L177.686 83.664ZM179.558 90.72C178.31 90.72 177.11 91.104 175.958 91.872C174.806 92.64 174.23 93.6 174.23 94.752C175.286 94.752 176.438 94.368 177.686 93.6C178.934 92.736 179.558 91.776 179.558 90.72ZM182.006 91.728C181.622 91.92 180.566 92.784 178.838 94.32C177.206 95.856 175.91 97.104 174.95 98.064H182.006C182.582 98.064 182.918 97.488 183.014 96.336C183.206 95.088 183.302 93.552 183.302 91.728H182.006ZM174.95 101.52C174.95 102.768 175.238 103.392 175.814 103.392L180.422 99.792V98.928C176.774 99.408 174.95 100.272 174.95 101.52ZM175.814 107.136C178.214 107.136 179.846 106.656 180.71 105.696C181.67 104.736 182.15 103.056 182.15 100.656H181.142L175.814 105.984V107.136ZM175.814 110.448C175.814 110.736 175.91 111.072 176.102 111.456C176.294 111.744 176.486 111.984 176.678 112.176L180.422 108.72L178.982 108.576C177.158 108.576 176.102 109.2 175.814 110.448ZM175.814 118.512C176.198 119.568 176.966 120.24 178.118 120.528C179.366 120.72 180.806 120.816 182.438 120.816C182.438 119.952 182.15 119.232 181.574 118.656C181.094 117.984 180.854 117.6 180.854 117.504C180.854 117.504 181.142 117.36 181.718 117.072C182.294 116.784 182.582 114.576 182.582 110.448H180.422C180.23 110.448 179.51 111.216 178.262 112.752C177.11 114.288 176.534 115.248 176.534 115.632V115.776H180.422L175.814 118.512ZM254.311 106.992C254.311 107.088 254.407 107.28 254.599 107.568C254.887 107.76 255.127 107.856 255.319 107.856C254.359 108.528 253.687 109.488 253.303 110.736C252.919 111.984 252.679 112.752 252.583 113.04C251.335 116.016 249.847 118.272 248.119 119.808C246.487 121.344 244.711 122.448 242.791 123.12C240.871 123.696 238.135 124.32 234.583 124.992C233.047 125.184 231.943 125.376 231.271 125.568L228.679 125.712L222.199 124.848C221.719 124.848 219.847 124.272 216.583 123.12C212.743 121.776 210.535 121.104 209.959 121.104C209.479 121.104 208.999 121.296 208.519 121.68C208.039 121.968 207.607 122.112 207.223 122.112C205.399 122.112 204.487 118.752 204.487 112.032C204.487 109.248 204.967 107.856 205.927 107.856C206.599 108.048 207.463 108.528 208.519 109.296C209.575 110.064 210.343 110.448 210.823 110.448L227.671 114.192C228.823 114.192 230.263 113.808 231.991 113.04C233.719 112.176 235.207 111.12 236.455 109.872C237.799 108.624 238.471 107.376 238.471 106.128C238.471 105.072 237.703 103.776 236.167 102.24C234.727 100.704 233.095 99.312 231.271 98.064C229.447 96.816 228.343 96.192 227.959 96.192C227.095 96.192 226.231 96.048 225.367 95.76C224.599 95.376 223.879 94.992 223.207 94.608C221.671 93.84 220.519 93.456 219.751 93.456C216.775 93.456 213.991 92.4 211.399 90.288C208.807 88.176 206.695 85.536 205.063 82.368C203.527 79.104 202.759 75.936 202.759 72.864C202.759 66.336 206.119 62.112 212.839 60.192C219.655 58.176 226.423 57.168 233.143 57.168C243.703 57.168 248.983 58.416 248.983 60.912V70.416C248.983 71.28 248.119 71.712 246.391 71.712C242.167 69.984 238.951 68.784 236.743 68.112C234.535 67.344 232.183 66.96 229.687 66.96C226.807 66.96 224.551 68.064 222.919 70.272C221.287 72.384 220.471 74.88 220.471 77.76C220.471 78.144 220.759 78.816 221.335 79.776C222.007 80.64 222.679 81.12 223.351 81.216L238.471 83.952C240.967 84.432 243.511 85.776 246.103 87.984C248.791 90.192 250.999 92.736 252.727 95.616C254.551 98.496 255.463 101.088 255.463 103.392C255.367 103.776 255.127 104.352 254.743 105.12C254.455 105.888 254.311 106.512 254.311 106.992ZM225.943 62.496H240.055C238.039 62.112 236.071 61.872 234.151 61.776C232.327 61.68 230.695 61.632 229.255 61.632C227.815 61.632 226.711 61.632 225.943 61.632V62.496ZM206.359 73.728C206.359 75.552 206.887 77.856 207.943 80.64C209.095 83.424 210.487 84.816 212.119 84.816C212.407 84.816 213.175 84.288 214.423 83.232C215.767 82.176 216.631 81.504 217.015 81.216C217.015 79.68 216.823 78.672 216.439 78.192C216.151 77.616 215.431 77.136 214.279 76.752C215.431 76.752 216.247 76.176 216.727 75.024C217.303 73.776 217.687 72.624 217.879 71.568C217.495 71.28 216.727 71.04 215.575 70.848C214.423 70.656 213.847 70.464 213.847 70.272C213.847 70.176 214.855 69.6 216.871 68.544C218.983 67.488 220.231 66.336 220.615 65.088C223.015 65.088 224.215 64.704 224.215 63.936C224.215 62.976 223.543 62.496 222.199 62.496C220.471 62.496 218.311 62.976 215.719 63.936C213.223 64.896 211.015 66.24 209.095 67.968C207.271 69.6 206.359 71.52 206.359 73.728ZM241.783 62.496C241.687 62.592 241.543 62.736 241.351 62.928C241.159 63.12 241.063 63.312 241.063 63.504C241.447 63.984 241.927 64.416 242.503 64.8C243.175 65.088 243.847 65.232 244.519 65.232L245.383 65.088C245.383 64.32 244.999 63.696 244.231 63.216C243.463 62.736 242.647 62.496 241.783 62.496ZM237.463 97.2C238.423 97.2 239.863 96.768 241.783 95.904C243.703 95.04 244.951 94.176 245.527 93.312C245.527 91.392 243.799 90 240.343 89.136C236.983 88.272 232.615 87.552 227.239 86.976C225.031 86.784 223.735 86.64 223.351 86.544C222.775 86.352 221.767 85.872 220.327 85.104C218.887 84.24 218.071 83.808 217.879 83.808C216.343 83.808 214.855 84.72 213.415 86.544C213.991 87.792 214.999 88.416 216.439 88.416C217.015 88.416 217.783 88.272 218.743 87.984C219.799 87.6 220.711 87.408 221.479 87.408C221.383 87.504 220.999 87.696 220.327 87.984C219.655 88.176 219.127 88.608 218.743 89.28C219.223 90.048 220.903 90.72 223.783 91.296C226.663 91.872 228.823 92.16 230.263 92.16V93.6C231.127 93.696 232.567 94.416 234.583 95.76C236.311 96.72 237.271 97.2 237.463 97.2ZM249.415 98.64C249.415 96.528 248.839 95.472 247.687 95.472C246.727 95.472 245.431 96.096 243.799 97.344C242.167 98.592 241.255 99.456 241.063 99.936C242.023 99.936 243.271 99.744 244.807 99.36C246.247 98.88 247.783 98.64 249.415 98.64ZM251.719 101.664C251.719 101.088 251.575 100.656 251.287 100.368C251.095 100.08 250.567 99.936 249.703 99.936H249.559C249.271 99.936 248.215 100.704 246.391 102.24C244.663 103.776 243.799 104.736 243.799 105.12V106.416C246.295 106.416 248.215 106.224 249.559 105.84C250.999 105.36 251.719 104.208 251.719 102.384V101.664ZM246.391 115.056C247.543 115.056 248.407 114.48 248.983 113.328C249.655 112.176 249.991 110.976 249.991 109.728C249.991 108.864 249.895 108.24 249.703 107.856L241.063 110.448C240.583 110.928 240.199 111.6 239.911 112.464C239.719 113.328 239.479 113.904 239.191 114.192L228.535 118.368V118.944C228.535 120.48 230.359 121.248 234.007 121.248C235.447 121.248 236.359 121.104 236.743 120.816C237.223 120.528 237.607 120.048 237.895 119.376C238.087 118.32 238.807 117.456 240.055 116.784C240.055 117.552 240.151 118.032 240.343 118.224C240.631 118.416 241.111 118.512 241.783 118.512H242.647C243.799 118.512 244.711 118.224 245.383 117.648C245.095 117.168 244.615 116.784 243.943 116.496C243.367 116.112 242.983 115.872 242.791 115.776L244.519 114.192C244.711 114.576 244.951 114.816 245.239 114.912C245.623 115.008 246.007 115.056 246.391 115.056ZM226.375 121.968C226.567 121.968 226.807 121.92 227.095 121.824C227.479 121.632 227.671 121.392 227.671 121.104C227.191 120.912 226.759 120.384 226.375 119.52C226.087 118.656 225.895 118.032 225.799 117.648H217.015C216.439 116.304 215.383 115.536 213.847 115.344C212.407 115.056 210.439 114.912 207.943 114.912C207.943 117.312 208.567 118.512 209.815 118.512C210.871 118.512 211.495 118.224 211.687 117.648C212.167 118.704 214.327 119.712 218.167 120.672C222.007 121.536 224.743 121.968 226.375 121.968ZM313.296 127.296C311.952 127.296 310.512 127.056 308.976 126.576C307.44 126.096 306.48 125.328 306.096 124.272C306.096 121.392 306.144 118.848 306.24 116.64C306.336 114.432 306.432 112.608 306.528 111.168C306.816 106.656 306.96 102.288 306.96 98.064V92.16C306.96 87.552 306.816 83.52 306.528 80.064C306.336 76.608 305.856 73.248 305.088 69.984V31.824H322.944C324.192 32.304 325.344 32.592 326.4 32.688C327.456 32.784 328.992 32.832 331.008 32.832C332.16 32.832 333.024 32.496 333.6 31.824C337.728 31.824 342.384 31.632 347.568 31.248L352.32 30.96C353.568 30.96 357.36 31.248 363.696 31.824C363.888 32.016 364.08 32.304 364.272 32.688C364.56 33.072 364.752 33.408 364.848 33.696C364.848 35.328 364.608 36.768 364.128 38.016C363.744 39.36 363.552 40.608 363.552 41.76L363.696 43.344L360.24 44.208C356.208 43.92 352.128 43.776 348 43.776C337.344 43.776 327.84 44.832 319.488 46.944C319.008 48 318.672 48.912 318.48 49.68C318.384 50.448 318.336 51.408 318.336 52.56C318.336 53.616 318.528 55.104 318.912 57.024C319.296 59.136 319.488 60.672 319.488 61.632L318.48 69.984L320.208 71.712L324.816 72C327.024 72 329.568 71.76 332.448 71.28C333.504 70.992 334.464 70.848 335.328 70.848C336 71.52 336.432 71.856 336.624 71.856H336.48L336.768 72C337.536 72 337.92 71.52 337.92 70.56H354.048C354.816 71.616 355.392 72.624 355.776 73.584L357.504 72.72C357.12 73.104 356.88 73.632 356.784 74.304C356.688 74.88 356.64 75.6 356.64 76.464C356.64 80.016 356.688 82.032 356.784 82.512L354.912 84.096C347.136 84.096 337.2 84.432 325.104 85.104L321.072 85.248L319.632 85.104C318.864 85.104 318.48 85.392 318.48 85.968V112.752L319.488 114.336C319.584 114.528 321.36 114.768 324.816 115.056C328.368 115.248 331.44 115.344 334.032 115.344C335.184 115.344 337.392 114.96 340.656 114.192C344.304 113.232 346.944 112.752 348.576 112.752C349.824 112.752 351.312 112.896 353.04 113.184C354.768 113.376 355.68 113.52 355.776 113.616L356.784 114.336C356.88 113.76 357.408 113.472 358.368 113.472L360.24 113.616L358.656 114.336L360.672 114.192H361.536C362.112 114.192 362.544 114.288 362.832 114.48C363.216 114.576 363.504 114.864 363.696 115.344C363.984 115.248 364.272 115.104 364.56 114.912C364.944 114.624 365.28 114.432 365.568 114.336C366.432 114.912 366.96 115.68 367.152 116.64C367.44 117.504 367.584 118.704 367.584 120.24C367.584 124.944 366.912 128.016 365.568 129.456L361.68 129.6C359.184 129.6 357.216 129.456 355.776 129.168C354.336 128.88 352.56 128.256 350.448 127.296H313.296ZM348.576 35.28C348.48 35.568 348.432 35.904 348.432 36.288C348.432 37.056 348.624 37.584 349.008 37.872C349.392 38.064 349.968 38.16 350.736 38.16C351.792 38.16 352.752 37.92 353.616 37.44C354.576 36.96 355.056 36.24 355.056 35.28H348.576ZM312.288 42.48C313.056 42.48 315.12 41.712 318.48 40.176C321.936 38.64 323.712 37.632 323.808 37.152C322.272 36.48 319.872 36.144 316.608 36.144C312 36.144 309.696 36.192 309.696 36.288L308.688 40.608C309.648 40.608 311.184 40.032 313.296 38.88L311.28 42.48H312.288ZM331.728 37.152H332.736V36.288L331.728 37.152ZM327.408 38.88C326.832 39.072 326.4 39.456 326.112 40.032C325.824 40.608 325.632 40.992 325.536 41.184C325.536 41.376 325.68 41.472 325.968 41.472C327.024 41.472 327.552 40.944 327.552 39.888L327.408 38.88ZM313.296 44.208C312.24 44.208 311.328 44.448 310.56 44.928C309.792 45.408 309.408 46.128 309.408 47.088C310.272 47.088 311.088 46.8 311.856 46.224C312.72 45.648 313.392 44.976 313.872 44.208H313.296ZM313.296 51.408C312.912 51.984 312.384 52.416 311.712 52.704C311.04 52.992 310.512 53.328 310.128 53.712C309.744 54 309.552 54.528 309.552 55.296L309.696 56.592C311.328 55.248 312.432 54.096 313.008 53.136C313.68 52.176 314.016 50.832 314.016 49.104L313.872 46.944C313.296 47.52 312.432 48.192 311.28 48.96C310.224 49.728 309.696 50.208 309.696 50.4C309.696 51.168 310.464 51.552 312 51.552L313.296 51.408ZM315.312 55.584C313.68 55.584 312.048 57.12 310.416 60.192C312.144 60.192 313.296 60.096 313.872 59.904C314.544 59.712 314.928 59.376 315.024 58.896C315.216 58.32 315.312 57.216 315.312 55.584ZM312.288 62.064C311.808 62.064 311.232 62.16 310.56 62.352C309.984 62.544 309.696 62.688 309.696 62.784V68.544C310.656 68.544 311.808 67.92 313.152 66.672C314.496 65.424 315.168 64.224 315.168 63.072C315.168 62.88 314.832 62.688 314.16 62.496C313.488 62.208 312.864 62.064 312.288 62.064ZM315.888 68.112C314.736 68.112 313.632 68.496 312.576 69.264C311.616 69.936 311.136 70.8 311.136 71.856C314.304 71.856 315.888 70.608 315.888 68.112ZM310.272 75.168C310.272 75.936 310.416 76.704 310.704 77.472C310.992 78.24 311.184 78.768 311.28 79.056L315.888 74.448V73.296C314.352 73.296 313.008 73.392 311.856 73.584C310.8 73.776 310.272 74.304 310.272 75.168ZM349.584 75.312C348.624 75.6 347.712 76.176 346.848 77.04C346.08 77.808 345.504 78.672 345.12 79.632H352.32C351.264 78.384 350.352 76.944 349.584 75.312ZM334.176 76.032C332.448 75.936 330.816 76.464 329.28 77.616C327.84 78.672 327.12 79.968 327.12 81.504C328.656 81.504 330.336 80.976 332.16 79.92C334.08 78.768 335.424 77.52 336.192 76.176L334.176 76.032ZM338.928 80.64C339.216 80.64 339.456 80.064 339.648 78.912C339.84 77.76 339.936 76.848 339.936 76.176H338.928L334.464 80.64H338.928ZM321.072 80.64C322.224 80.64 323.472 80.352 324.816 79.776C326.16 79.104 326.832 78.24 326.832 77.184H316.752C316.08 77.184 315.744 77.808 315.744 79.056H321.072V80.64ZM314.304 81.36C312.288 81.36 311.28 82.08 311.28 83.52C312.048 83.52 312.72 83.376 313.296 83.088C313.968 82.704 314.304 82.128 314.304 81.36ZM313.872 85.248C313.776 85.344 313.296 85.728 312.432 86.4C311.568 87.072 311.136 87.888 311.136 88.848C312.288 88.848 313.056 88.704 313.44 88.416C313.824 88.032 314.016 87.312 314.016 86.256L313.872 85.248ZM311.28 92.304C311.376 92.496 311.52 92.784 311.712 93.168C311.904 93.552 312.096 93.84 312.288 94.032C313.056 93.744 313.44 92.784 313.44 91.152C313.056 91.152 312.576 91.248 312 91.44C311.52 91.536 311.28 91.824 311.28 92.304ZM314.016 95.616C313.056 95.616 312.432 96 312.144 96.768C311.952 97.44 311.856 98.448 311.856 99.792C313.296 99.792 314.016 98.4 314.016 95.616ZM312.864 101.088C311.52 101.088 310.848 102.576 310.848 105.552C310.848 106.032 310.848 106.416 310.848 106.704C310.944 106.992 310.992 107.184 310.992 107.28H312.288C312.48 107.28 312.768 106.8 313.152 105.84C313.632 104.784 313.872 104.016 313.872 103.536C313.872 103.056 313.776 102.528 313.584 101.952C313.392 101.28 313.2 100.944 313.008 100.944L312.864 101.088ZM311.28 115.488C312.048 115.488 312.576 115.2 312.864 114.624C313.248 114.048 313.44 113.424 313.44 112.752H311.28V115.488ZM311.28 120.96C311.28 121.344 311.424 121.68 311.712 121.968C312 122.256 312.192 122.448 312.288 122.544C312.48 122.352 313.152 121.68 314.304 120.528C315.552 119.28 316.176 118.416 316.176 117.936H313.872V116.352C313.296 116.64 312.72 117.408 312.144 118.656C311.664 119.904 311.376 120.576 311.28 120.672V120.96ZM346.992 117.936C346.608 117.936 346.224 117.984 345.84 118.08C345.552 118.176 345.312 118.416 345.12 118.8H345.408C346.848 118.8 347.664 118.512 347.856 117.936H346.992ZM345.12 121.536C346.656 121.536 347.712 121.488 348.288 121.392C348.96 121.2 349.68 120.672 350.448 119.808V121.536L357.504 118.8H348.576L345.12 121.536ZM359.232 125.136C360.864 125.136 361.92 124.56 362.4 123.408C362.88 122.256 363.12 120.72 363.12 118.8H359.232V125.136ZM333.6 119.664C332.352 119.664 331.152 119.904 330 120.384C328.848 120.864 327.984 121.584 327.408 122.544L330 122.688C331.536 122.688 332.688 122.544 333.456 122.256C334.32 121.872 334.944 121.056 335.328 119.808L333.6 119.664ZM341.952 119.664C341.76 119.664 341.328 120 340.656 120.672C339.984 121.248 339.408 121.872 338.928 122.544C339.312 122.544 339.888 122.256 340.656 121.68C341.424 121.104 342 120.48 342.384 119.808L341.952 119.664ZM319.488 119.808C317.856 120.48 316.32 121.392 314.88 122.544C316.032 122.544 316.848 122.4 317.328 122.112C317.904 121.728 318.624 120.96 319.488 119.808ZM357.504 120.672C357.024 120.672 356.16 120.912 354.912 121.392C353.76 121.872 353.184 122.256 353.184 122.544V123.984C354.24 123.984 355.248 123.696 356.208 123.12C357.264 122.448 358.08 121.632 358.656 120.672H357.504ZM323.376 121.536C323.088 121.536 322.704 121.632 322.224 121.824C321.744 122.016 321.36 122.256 321.072 122.544L322.08 122.688C322.944 122.688 323.52 122.304 323.808 121.536H323.376ZM377.891 118.08C377.891 115.392 378.179 111.456 378.755 106.272C379.427 101.568 379.763 97.536 379.763 94.176C379.763 92.064 379.523 89.472 379.043 86.4C378.755 84.96 378.611 83.568 378.611 82.224C378.611 78.48 378.803 73.728 379.187 67.968C379.475 64.608 379.619 61.968 379.619 60.048L380.627 59.04C380.819 59.136 381.827 59.184 383.651 59.184C384.899 59.184 385.955 59.04 386.819 58.752C387.779 58.464 388.595 58.32 389.267 58.32C389.939 58.32 390.563 58.896 391.139 60.048C391.811 61.2 392.147 62.064 392.147 62.64C393.395 62.16 394.931 61.392 396.755 60.336C399.731 58.896 402.131 57.888 403.955 57.312C405.875 56.64 408.179 56.304 410.867 56.304C415.091 56.304 419.219 57.408 423.251 59.616C427.283 61.728 430.787 64.512 433.763 67.968L434.339 68.112C434.627 68.112 436.451 66.912 439.811 64.512C443.171 62.112 445.043 60.624 445.427 60.048L456.947 57.312C465.107 57.312 471.587 60 476.387 65.376C481.283 70.752 484.259 77.52 485.315 85.68L485.171 91.872C485.171 94.368 485.507 96.144 486.179 97.2L486.323 115.056C486.323 119.088 485.651 122.16 484.307 124.272C483.059 126.384 480.419 127.44 476.387 127.44C473.123 127.44 471.011 126.096 470.051 123.408C469.187 120.72 468.707 116.928 468.611 112.032C468.611 109.632 468.563 107.952 468.467 106.992C468.467 106.512 468.179 103.776 467.603 98.784C466.931 94.368 466.595 91.488 466.595 90.144C466.595 89.376 466.787 88.224 467.171 86.688C467.459 84.672 467.603 83.616 467.603 83.52C467.603 77.76 464.339 73.776 457.811 71.568V70.704C456.851 71.472 454.739 72.096 451.475 72.576C448.019 73.056 445.187 73.824 442.979 74.88C440.867 75.936 439.571 77.808 439.091 80.496L438.947 86.976C438.947 90.144 439.091 93.648 439.379 97.488C439.667 101.232 439.859 103.728 439.955 104.976C440.627 111.888 440.963 117.792 440.963 122.688C440.963 124.896 437.315 126 430.019 126C428.291 126 426.851 125.856 425.699 125.568C424.547 125.184 423.971 124.32 423.971 122.976L422.243 123.984C422.339 123.024 422.387 121.728 422.387 120.096C422.963 111.264 423.251 103.392 423.251 96.48C423.251 94.176 423.011 91.2 422.531 87.552C422.051 83.808 421.427 80.256 420.659 76.896C418.835 74.88 417.107 73.44 415.475 72.576C413.939 71.616 411.779 70.704 408.995 69.84C408.419 69.264 408.131 68.976 408.131 68.976C407.843 69.456 406.451 70.464 403.955 72C401.459 73.44 399.299 74.448 397.475 75.024C397.475 75.408 397.043 76.896 396.179 79.488C394.739 83.808 393.971 86.448 393.875 87.408L393.731 91.008C393.731 92.64 393.923 94.992 394.307 98.064C394.691 101.328 394.883 103.728 394.883 105.264C394.883 109.488 394.595 114.144 394.019 119.232C393.539 124.32 392.579 127.344 391.139 128.304L388.115 128.448C387.347 128.448 385.379 128.064 382.211 127.296C379.043 126.528 377.651 126.048 378.035 125.856L377.891 118.08ZM387.683 76.896C389.507 76.896 391.091 76.224 392.435 74.88C393.779 73.536 395.219 71.712 396.755 69.408C397.715 67.968 398.483 66.912 399.059 66.24C399.731 65.568 400.355 65.232 400.931 65.232L400.067 67.104C401.123 67.008 402.323 66.72 403.667 66.24C405.587 65.664 407.075 65.376 408.131 65.376V66.528C408.899 66.528 409.811 66.192 410.867 65.52C411.923 64.752 412.787 64.368 413.459 64.368L412.451 65.232C413.315 66 414.083 66.528 414.755 66.816C415.427 67.008 416.339 67.104 417.491 67.104C418.259 67.104 418.979 66.912 419.651 66.528C420.323 66.144 420.659 65.568 420.659 64.8C420.659 62.88 419.651 61.728 417.635 61.344C415.619 60.96 413.267 60.768 410.579 60.768C408.851 60.768 407.459 60.96 406.403 61.344C405.443 61.632 404.243 62.4 402.803 63.648L403.667 61.776C401.075 62.736 398.483 64.08 395.891 65.808C393.299 67.44 392.003 69.36 392.003 71.568C392.003 72.048 392.051 72.384 392.147 72.576L387.683 76.896ZM474.947 92.304C477.539 92.112 479.507 91.68 480.851 91.008L480.995 85.536C480.995 83.232 480.659 81.072 479.987 79.056H477.395C477.683 78.96 478.019 78.624 478.403 78.048C478.787 77.376 479.027 76.896 479.123 76.608C479.123 75.36 478.403 73.776 476.963 71.856C475.523 69.84 473.843 68.112 471.923 66.672C470.099 65.136 468.611 64.368 467.459 64.368C466.979 64.368 466.451 64.512 465.875 64.8C465.299 64.992 464.723 65.088 464.147 65.088C464.147 64.896 464.243 64.704 464.435 64.512C464.723 64.224 464.867 63.984 464.867 63.792C464.867 62.928 463.811 62.4 461.699 62.208C459.683 61.92 457.811 61.776 456.083 61.776C453.395 61.776 450.707 62.448 448.019 63.792C445.427 65.136 443.363 66.864 441.827 68.976L442.691 69.84L451.619 65.232L450.755 67.104C452.675 65.76 454.115 64.848 455.075 64.368L453.347 67.104C459.587 68.352 462.947 68.976 463.427 68.976L465.875 68.688C465.875 69.744 465.923 70.416 466.019 70.704C466.211 70.992 466.499 71.136 466.883 71.136L468.611 70.992L468.467 72.576C468.659 72.768 468.947 73.392 469.331 74.448C469.811 75.408 470.243 75.888 470.627 75.888C471.107 75.792 471.731 75.6 472.499 75.312C473.267 75.024 473.987 74.688 474.659 74.304C474.083 74.88 473.459 75.648 472.787 76.608C472.115 77.472 471.779 78 471.779 78.192C471.779 78.576 472.115 78.864 472.787 79.056C473.459 79.248 473.795 79.392 473.795 79.488C473.795 79.872 473.699 80.352 473.507 80.928C473.315 81.408 473.123 81.84 472.931 82.224H474.659C474.083 83.088 473.699 84.288 473.507 85.824C473.315 87.072 473.075 88.032 472.787 88.704C472.595 89.28 472.067 89.76 471.203 90.144C471.299 90.144 471.443 90.192 471.635 90.288C471.827 90.288 472.115 90.288 472.499 90.288C473.747 90.288 474.755 90 475.523 89.424L471.923 92.736L474.947 92.304ZM388.547 70.704C388.067 70.128 387.779 69.648 387.683 69.264C387.587 68.88 387.539 68.256 387.539 67.392C387.539 67.008 387.683 66.48 387.971 65.808C388.355 65.136 388.547 64.656 388.547 64.368C388.547 63.792 387.491 63.504 385.379 63.504C383.939 63.504 383.219 63.936 383.219 64.8C383.219 65.28 383.363 65.856 383.651 66.528C383.939 67.104 384.227 67.392 384.515 67.392C384.611 67.392 384.755 67.296 384.947 67.104L383.219 69.84C383.315 70.032 383.459 70.224 383.651 70.416C383.939 70.608 384.179 70.704 384.371 70.704C384.947 70.704 385.427 70.656 385.811 70.56C386.291 70.464 386.627 70.416 386.819 70.416V71.568L388.547 70.704ZM419.507 68.4C419.507 68.88 419.699 69.264 420.083 69.552C420.467 69.744 420.851 69.84 421.235 69.84C421.907 69.744 422.915 69.552 424.259 69.264C425.603 68.88 426.707 68.448 427.571 67.968C426.803 67.104 426.083 66.432 425.411 65.952C424.739 65.472 424.019 65.232 423.251 65.232C422.387 65.232 421.715 65.424 421.235 65.808C420.851 66.192 420.515 66.672 420.227 67.248C419.939 67.728 419.699 68.112 419.507 68.4ZM426.563 69.84C425.411 69.84 424.355 70.08 423.395 70.56C422.531 70.944 422.099 71.664 422.099 72.72C424.403 72.72 426.227 71.76 427.571 69.84H426.563ZM429.443 70.704C429.155 70.704 428.147 71.28 426.419 72.432C424.787 73.488 423.971 74.112 423.971 74.304C427.619 74.304 430.019 73.392 431.171 71.568L429.443 70.704ZM439.091 71.424C438.035 71.424 436.451 72.192 434.339 73.728C432.227 75.168 430.259 76.8 428.435 78.624C426.707 80.352 425.843 81.552 425.843 82.224C427.475 81.552 429.011 81.12 430.451 80.928C431.603 80.64 432.467 80.352 433.043 80.064C433.715 79.68 434.627 78.768 435.779 77.328C436.931 75.888 438.371 73.968 440.099 71.568L439.091 71.424ZM383.219 75.888H384.083V75.024L383.219 75.888ZM429.443 75.024C427.811 75.12 426.467 75.36 425.411 75.744C424.451 76.128 423.971 76.992 423.971 78.336C423.971 78.624 424.307 78.768 424.979 78.768C425.459 78.576 426.323 78.192 427.571 77.616C428.819 76.944 429.443 76.368 429.443 75.888V75.024ZM432.035 81.36C430.499 81.36 429.059 81.792 427.715 82.656C426.371 83.424 425.699 84.528 425.699 85.968C426.275 85.68 427.379 85.152 429.011 84.384C430.739 83.52 432.035 82.8 432.899 82.224C432.899 82.032 432.803 81.84 432.611 81.648C432.419 81.456 432.227 81.36 432.035 81.36ZM430.307 88.416C427.715 88.992 426.419 89.952 426.419 91.296C426.419 91.584 426.467 91.824 426.563 92.016C427.331 91.824 428.531 91.008 430.163 89.568C430.355 89.376 430.883 88.944 431.747 88.272C432.611 87.6 433.283 87.264 433.763 87.264V83.232C432.611 83.712 430.979 84.672 428.867 86.112C426.851 87.456 425.843 88.224 425.843 88.416H430.307ZM432.899 95.472C432.131 96.72 431.027 97.536 429.587 97.92C428.723 98.304 428.099 98.736 427.715 99.216C427.331 99.696 427.139 100.56 427.139 101.808C429.251 101.808 431.171 100.656 432.899 98.352C434.723 95.952 435.635 93.696 435.635 91.584C435.635 90.816 435.539 90.24 435.347 89.856C435.251 89.472 434.915 89.28 434.339 89.28C433.091 89.28 431.459 90.144 429.443 91.872C427.523 93.504 426.563 94.704 426.563 95.472C426.563 95.664 426.659 95.856 426.851 96.048C427.139 96.24 427.379 96.336 427.571 96.336C427.955 96.336 428.675 96.192 429.731 95.904C430.787 95.616 431.843 95.472 432.899 95.472ZM390.563 91.728C389.603 91.824 388.691 92.256 387.827 93.024C387.059 93.696 386.675 94.512 386.675 95.472L386.819 96.336C388.355 96.144 389.363 95.76 389.843 95.184C390.323 94.512 390.563 93.36 390.563 91.728ZM480.851 92.736C478.643 94.176 476.003 96.576 472.931 99.936C475.235 99.936 477.251 99.6 478.979 98.928C480.803 98.16 481.715 97.008 481.715 95.472C481.715 95.376 481.427 94.464 480.851 92.736ZM471.059 95.904C471.059 96.288 471.203 96.624 471.491 96.912C471.779 97.2 472.019 97.344 472.211 97.344C472.691 97.344 474.083 96.192 476.387 93.888H475.523C474.467 93.888 473.459 94.032 472.499 94.32C471.539 94.608 471.059 95.136 471.059 95.904ZM435.635 98.784C434.483 98.784 433.475 99.216 432.611 100.08C431.747 100.848 430.691 102 429.443 103.536H435.635V98.784ZM478.259 101.808C477.587 102.192 476.723 102.816 475.667 103.68C474.707 104.448 474.083 104.976 473.795 105.264H474.659C475.523 105.264 476.963 104.832 478.979 103.968C481.091 103.104 482.147 102.48 482.147 102.096C482.147 101.424 481.907 100.896 481.427 100.512C480.947 100.128 480.323 99.936 479.555 99.936C478.787 99.936 477.443 100.224 475.523 100.8C473.699 101.376 472.787 102.288 472.787 103.536L472.931 104.544C473.891 103.392 474.659 102.624 475.235 102.24C475.811 101.76 476.531 101.52 477.395 101.52L478.259 101.808ZM386.387 100.944C385.523 100.944 384.803 101.184 384.227 101.664C383.651 102.144 383.315 102.768 383.219 103.536L383.651 103.68C383.939 103.68 384.995 102.768 386.819 100.944H386.387ZM473.507 113.328C473.507 114.96 473.795 116.544 474.371 118.08C474.851 119.712 475.091 121.152 475.091 122.4C479.603 122.4 481.859 121.008 481.859 118.224C481.859 117.552 481.523 117.12 480.851 116.928C481.523 116.736 481.859 116.16 481.859 115.2C481.859 114.624 481.667 113.856 481.283 112.896C480.995 111.84 480.851 111.072 480.851 110.592C480.947 110.496 481.091 110.352 481.283 110.16C481.475 109.968 481.619 109.824 481.715 109.728C481.811 109.056 481.907 108.144 482.003 106.992C482.099 105.744 482.147 104.736 482.147 103.968C480.803 103.968 479.363 104.352 477.827 105.12C476.387 105.792 474.755 106.704 472.931 107.856C472.931 108.912 473.171 109.968 473.651 111.024C474.131 111.984 474.371 112.752 474.371 113.328H473.507ZM426.563 111.168C426.563 111.36 426.659 111.6 426.851 111.888C427.043 112.176 427.283 112.32 427.571 112.32L434.771 105.264C431.315 105.264 429.059 105.744 428.003 106.704C427.043 107.664 426.563 109.152 426.563 111.168ZM426.563 116.928C428.963 116.832 431.123 115.872 433.043 114.048C434.963 112.128 435.923 110.016 435.923 107.712C434.675 107.712 433.619 108.096 432.755 108.864C431.987 109.536 431.171 110.544 430.307 111.888H432.899C432.899 112.56 432.323 113.136 431.171 113.616C430.115 114.096 428.579 114.624 426.563 115.2V116.928ZM381.347 110.592C381.347 110.88 381.443 111.216 381.635 111.6C381.923 111.984 382.163 112.224 382.355 112.32C383.603 111.552 384.467 110.4 384.947 108.864C384.659 108.96 383.987 109.2 382.931 109.584C381.875 109.872 381.347 110.208 381.347 110.592ZM389.411 110.592C389.315 110.688 388.931 111.024 388.259 111.6C387.587 112.08 387.251 112.704 387.251 113.472C388.787 113.472 389.555 112.848 389.555 111.6L389.411 110.592ZM432.035 121.248V119.52H433.907C433.907 119.808 433.859 120.048 433.763 120.24C433.667 120.336 433.619 120.432 433.619 120.528C433.619 120.72 434.003 120.96 434.771 121.248L435.635 120.384V114.192C434.291 114.96 432.899 115.68 431.459 116.352C431.075 116.544 430.307 116.928 429.155 117.504C428.099 118.08 427.571 118.56 427.571 118.944C427.571 119.52 427.715 119.904 428.003 120.096C428.291 120.192 428.483 120.288 428.579 120.384L427.571 121.248H432.035ZM382.355 120.816C383.123 120.816 383.987 120.048 384.947 118.512H382.355V120.816ZM384.947 122.976H388.547V120.384L384.947 122.976ZM509.617 29.664C509.713 29.472 510.721 29.28 512.641 29.088C514.561 28.8 516.193 28.656 517.537 28.656C518.305 28.656 519.217 28.896 520.273 29.376C521.425 29.76 522.001 30.144 522.001 30.528V41.184C522.001 42.432 521.137 43.056 519.409 43.056C517.105 43.056 514.561 42.864 511.777 42.48C509.089 42.096 507.745 41.376 507.745 40.32V31.248L509.617 29.664ZM510.913 33.12C510.913 34.08 511.105 35.088 511.489 36.144C511.873 37.104 512.497 37.584 513.361 37.584C515.089 37.584 516.289 37.44 516.961 37.152C517.729 36.864 518.113 36.144 518.113 34.992C518.113 34.512 517.921 33.888 517.537 33.12C517.249 33.216 516.865 33.408 516.385 33.696C516.001 33.984 515.521 34.128 514.945 34.128L515.953 33.12H510.913ZM511.345 124.56C511.153 123.888 510.721 123.072 510.049 122.112C509.377 121.152 508.945 120.24 508.753 119.376C507.409 113.808 506.545 108 506.161 101.952C505.777 95.808 505.585 88.56 505.585 80.208V75.6C505.585 69.552 506.113 64.944 507.169 61.776C508.225 58.608 510.529 57.024 514.081 57.024C517.633 57.024 520.033 58.56 521.281 61.632C522.625 64.608 523.297 68.496 523.297 73.296C523.297 78.576 522.913 84.384 522.145 90.72C521.473 95.616 521.137 99.936 521.137 103.68C521.137 106.08 521.329 109.584 521.713 114.192C521.809 115.344 521.905 116.736 522.001 118.368C522.097 120 522.145 121.92 522.145 124.128C522.145 125.664 521.521 126.432 520.273 126.432C519.121 126.24 517.633 125.952 515.809 125.568C514.081 125.184 512.593 124.848 511.345 124.56ZM512.785 66.096C516.625 66.096 518.545 65.52 518.545 64.368C518.545 63.216 518.401 62.448 518.113 62.064C517.921 61.68 517.489 61.488 516.817 61.488C516.625 61.488 516.193 61.68 515.521 62.064C514.849 62.352 514.369 62.496 514.081 62.496C513.889 62.496 513.649 62.352 513.361 62.064C513.073 61.68 512.689 61.488 512.209 61.488C511.537 61.488 511.009 61.632 510.625 61.92C510.337 62.112 510.001 62.592 509.617 63.36C510.385 64.128 511.105 64.512 511.777 64.512L512.209 64.368L511.345 66.096H512.785ZM509.473 70.272C509.473 70.464 509.569 70.704 509.761 70.992C510.049 71.184 510.289 71.28 510.481 71.28C511.345 71.28 512.401 70.656 513.649 69.408C514.897 68.064 515.665 67.248 515.953 66.96H515.377C514.609 66.96 513.457 67.2 511.921 67.68C510.385 68.16 509.617 68.976 509.617 70.128L509.473 70.272ZM518.833 67.248C516.337 67.248 513.841 69.456 511.345 73.872C512.689 73.392 514.225 73.152 515.953 73.152C516.817 73.152 517.441 73.056 517.825 72.864C518.209 72.672 518.449 72.192 518.545 71.424C518.737 70.56 518.833 69.168 518.833 67.248ZM509.617 79.2C509.617 79.392 509.713 79.632 509.905 79.92C510.193 80.112 510.385 80.208 510.481 80.208C512.593 79.056 514.657 77.328 516.673 75.024L515.377 74.88C513.841 74.88 512.497 75.264 511.345 76.032C510.193 76.704 509.617 77.76 509.617 79.2ZM518.545 75.888C515.953 77.232 514.177 78.96 513.217 81.072L514.513 81.216C515.185 81.216 516.001 81.168 516.961 81.072C518.017 80.88 518.545 80.592 518.545 80.208V75.888ZM513.217 89.28C517.537 89.28 519.697 87.168 519.697 82.944H518.545L513.217 88.272V89.28ZM513.217 83.664C511.297 83.664 510.337 84.48 510.337 86.112L510.481 87.552L514.081 83.808L513.217 83.664ZM515.089 90.72C513.841 90.72 512.641 91.104 511.489 91.872C510.337 92.64 509.761 93.6 509.761 94.752C510.817 94.752 511.969 94.368 513.217 93.6C514.465 92.736 515.089 91.776 515.089 90.72ZM517.537 91.728C517.153 91.92 516.097 92.784 514.369 94.32C512.737 95.856 511.441 97.104 510.481 98.064H517.537C518.113 98.064 518.449 97.488 518.545 96.336C518.737 95.088 518.833 93.552 518.833 91.728H517.537ZM510.481 101.52C510.481 102.768 510.769 103.392 511.345 103.392L515.953 99.792V98.928C512.305 99.408 510.481 100.272 510.481 101.52ZM511.345 107.136C513.745 107.136 515.377 106.656 516.241 105.696C517.201 104.736 517.681 103.056 517.681 100.656H516.673L511.345 105.984V107.136ZM511.345 110.448C511.345 110.736 511.441 111.072 511.633 111.456C511.825 111.744 512.017 111.984 512.209 112.176L515.953 108.72L514.513 108.576C512.689 108.576 511.633 109.2 511.345 110.448ZM511.345 118.512C511.729 119.568 512.497 120.24 513.649 120.528C514.897 120.72 516.337 120.816 517.969 120.816C517.969 119.952 517.681 119.232 517.105 118.656C516.625 117.984 516.385 117.6 516.385 117.504C516.385 117.504 516.673 117.36 517.249 117.072C517.825 116.784 518.113 114.576 518.113 110.448H515.953C515.761 110.448 515.041 111.216 513.793 112.752C512.641 114.288 512.065 115.248 512.065 115.632V115.776H515.953L511.345 118.512ZM591.138 125.856C591.138 124.224 590.706 122.832 589.842 121.68L589.986 116.784C590.178 112.368 590.274 109.056 590.274 106.848C590.274 96.576 589.266 87.552 587.25 79.776C585.906 78.624 584.754 77.52 583.794 76.464C582.45 75.024 581.154 74.016 579.906 73.44C578.658 72.864 576.546 72.576 573.57 72.576C571.458 72.576 569.394 72.912 567.378 73.584C565.362 74.16 562.818 75.36 559.746 77.184C558.594 77.856 557.826 78.912 557.442 80.352C557.058 81.696 556.866 83.424 556.866 85.536C556.866 90.72 556.962 94.848 557.154 97.92C557.346 100.896 557.922 103.728 558.882 106.416V124.992C558.882 125.568 558.45 125.856 557.586 125.856C554.706 125.664 552.066 125.472 549.666 125.28C547.266 125.088 545.922 124.992 545.634 124.992L542.898 123.264C542.802 123.168 542.61 120.48 542.322 115.2C542.13 109.92 542.034 105.216 542.034 101.088C542.034 97.152 542.178 93.456 542.466 90C542.85 84.432 543.042 79.104 543.042 74.016L542.898 61.2C543.57 60.72 544.434 60.336 545.49 60.048C546.642 59.664 547.554 59.472 548.226 59.472C549.57 59.472 550.626 59.808 551.394 60.48C552.162 61.152 552.882 62.112 553.554 63.36C554.418 64.8 555.186 65.52 555.858 65.52C557.106 65.52 558.306 65.28 559.458 64.8C560.61 64.224 562.194 63.408 564.21 62.352C566.61 61.008 568.53 60.048 569.97 59.472C571.506 58.8 573.138 58.464 574.866 58.464C577.842 58.464 582.45 59.808 588.69 62.496L591.858 63.792C597.522 66 601.314 71.088 603.234 79.056C605.25 86.928 606.258 95.28 606.258 104.112C606.258 106.608 606.018 109.392 605.538 112.464C605.154 116.112 604.962 118.8 604.962 120.528C604.962 121.776 605.01 122.688 605.106 123.264C604.146 123.264 603.618 123.744 603.522 124.704C603.426 125.664 603.042 126.432 602.37 127.008C601.698 127.68 599.922 128.016 597.042 128.016C597.234 127.44 597.33 126.912 597.33 126.432C597.33 126.24 597.282 126.144 597.186 126.144C596.994 126.24 596.61 126.48 596.034 126.864C595.554 127.344 595.074 127.632 594.594 127.728C593.538 127.728 592.626 127.488 591.858 127.008L591.138 125.856ZM570.402 67.392C571.842 67.392 573.81 67.584 576.306 67.968C578.802 68.256 580.674 68.64 581.922 69.12C582.306 69.216 583.218 69.888 584.658 71.136C584.85 71.232 585.378 71.664 586.242 72.432C587.202 73.2 588.018 73.584 588.69 73.584C589.458 73.584 589.842 73.248 589.842 72.576L589.122 71.856C589.314 71.472 589.794 71.088 590.562 70.704C591.426 70.32 591.858 69.936 591.858 69.552C591.858 68.592 590.802 68.112 588.69 68.112C588.018 68.112 587.394 68.304 586.818 68.688C586.338 68.976 585.906 69.12 585.522 69.12C585.042 68.448 584.61 68.112 584.226 68.112L583.938 68.256L584.658 66.528C583.986 65.856 583.026 65.52 581.778 65.52C581.202 65.52 580.482 65.616 579.618 65.808C578.754 65.904 578.082 65.952 577.602 65.952V63.072C573.954 63.072 571.89 63.888 571.41 65.52V63.792C571.026 64.08 570.45 64.32 569.682 64.512C568.914 64.608 568.434 64.704 568.242 64.8C566.61 65.088 565.362 65.472 564.498 65.952C563.73 66.336 563.346 67.056 563.346 68.112C563.346 68.208 563.49 68.352 563.778 68.544C564.066 68.736 564.21 68.928 564.21 69.12L566.082 67.392C566.082 67.392 566.37 67.68 566.946 68.256H567.378C567.666 68.16 568.098 67.92 568.674 67.536C569.25 67.152 569.538 66.816 569.538 66.528L570.402 67.392ZM546.498 111.168C547.362 111.168 548.754 109.632 550.674 106.56C552.69 103.488 553.698 101.28 553.698 99.936C553.698 98.688 553.65 97.632 553.554 96.768C553.458 95.808 553.362 94.992 553.266 94.32C552.882 92.016 552.69 90.192 552.69 88.848C552.69 88.08 552.738 87.456 552.834 86.976L550.962 87.696C551.634 86.736 552.066 85.968 552.258 85.392C552.546 84.72 552.786 83.856 552.978 82.8L553.554 79.776C554.034 77.952 554.754 76.416 555.714 75.168C556.77 73.92 558.018 72.768 559.458 71.712C560.994 70.56 561.762 69.648 561.762 68.976C561.762 68.688 561.714 68.448 561.618 68.256C560.946 68.448 559.842 69.216 558.306 70.56C558.114 70.656 557.634 71.04 556.866 71.712C556.098 72.288 555.474 72.576 554.994 72.576C554.13 72.576 553.506 72.384 553.122 72C552.738 71.52 552.306 70.752 551.826 69.696C551.442 68.928 551.058 68.352 550.674 67.968C550.386 67.488 549.906 67.248 549.234 67.248C548.85 67.248 548.514 67.296 548.226 67.392C548.418 67.2 548.61 66.912 548.802 66.528C548.994 66.144 549.09 65.808 549.09 65.52C549.09 65.232 548.85 65.04 548.37 64.944C547.986 64.752 547.746 64.608 547.65 64.512C547.554 64.512 547.314 64.896 546.93 65.664C546.642 66.432 546.498 67.008 546.498 67.392C546.498 69.12 546.69 71.424 547.074 74.304C547.362 76.032 547.506 77.424 547.506 78.48L547.362 81.504C547.554 81.504 547.746 81.648 547.938 81.936C548.13 82.128 548.226 82.272 548.226 82.368C548.226 83.136 547.938 84.288 547.362 85.824C546.786 87.552 546.498 88.8 546.498 89.568H550.098L547.362 92.16L548.226 93.168C547.074 94.032 546.306 94.944 545.922 95.904C545.538 96.864 545.346 98.16 545.346 99.792C547.17 99.792 548.418 99.024 549.09 97.488C549.09 97.872 549.186 98.064 549.378 98.064C549.378 98.16 548.85 98.88 547.794 100.224C546.834 101.568 546.354 102.384 546.354 102.672H550.962L546.498 104.688V111.168ZM591.858 79.056C593.106 78.48 593.874 77.904 594.162 77.328C594.45 76.656 594.594 75.696 594.594 74.448V73.872C594.594 72.624 594.258 71.952 593.586 71.856C591.09 72.816 589.842 74.304 589.842 76.32H592.722L590.85 78.048L591.858 79.056ZM597.186 81.504C596.034 81.696 595.026 82.128 594.162 82.8C593.298 83.472 592.866 84.336 592.866 85.392C594.114 85.392 595.41 84.768 596.754 83.52C598.194 82.272 598.914 81.024 598.914 79.776C598.914 79.392 598.674 78.864 598.194 78.192C597.714 77.52 597.234 77.184 596.754 77.184C595.698 77.184 594.738 77.664 593.874 78.624C593.01 79.488 592.578 80.448 592.578 81.504H597.186ZM598.914 83.232C597.666 83.616 596.514 84.336 595.458 85.392C594.402 86.448 593.874 87.552 593.874 88.704C595.602 88.704 596.994 88.56 598.05 88.272C599.202 87.888 599.778 87.12 599.778 85.968C599.778 85.488 599.73 85.056 599.634 84.672C599.538 84.192 599.298 83.712 598.914 83.232ZM596.178 89.568C594.93 89.568 594.306 90.144 594.306 91.296L594.45 92.16C594.834 92.064 595.218 91.776 595.602 91.296C595.986 90.72 596.226 90.288 596.322 90L596.178 89.568ZM595.314 95.472C595.314 96.912 595.218 97.92 595.026 98.496C596.658 98.496 598.05 97.776 599.202 96.336C600.354 94.896 600.93 93.312 600.93 91.584L600.642 89.568C599.202 90.144 597.954 90.768 596.898 91.44C595.842 92.016 595.314 92.688 595.314 93.456V95.472ZM598.05 108.576C596.514 108.96 595.746 110.112 595.746 112.032C597.282 112.032 598.77 111.312 600.21 109.872C601.746 108.432 602.514 106.992 602.514 105.552C602.514 105.168 602.466 104.88 602.37 104.688C601.794 99.12 601.41 96.336 601.218 96.336C601.026 96.336 600.114 96.96 598.482 98.208C596.85 99.36 596.034 100.224 596.034 100.8C596.034 100.992 596.178 101.232 596.466 101.52C596.754 101.808 596.994 101.952 597.186 101.952C596.418 101.952 595.842 102.24 595.458 102.816C595.074 103.392 594.882 104.016 594.882 104.688C595.842 104.688 596.898 104.208 598.05 103.248C599.01 102.48 599.874 102.096 600.642 102.096V102.672C597.858 104.208 596.13 106.176 595.458 108.576H598.05ZM554.85 103.968C553.89 103.968 552.642 104.736 551.106 106.272C549.666 107.808 548.946 109.056 548.946 110.016H553.554C553.938 110.016 554.226 109.392 554.418 108.144C554.706 106.8 554.85 105.408 554.85 103.968ZM601.506 110.016C598.914 111.936 597.33 113.712 596.754 115.344C596.178 116.976 595.89 119.616 595.89 123.264H601.218C601.218 120.192 600.45 118.416 598.914 117.936C599.202 117.84 599.682 117.6 600.354 117.216C601.122 116.736 601.506 116.4 601.506 116.208V110.016ZM550.962 111.744C549.042 111.744 547.602 112.032 546.642 112.608C545.682 113.184 545.202 114.384 545.202 116.208H547.362L551.826 111.744H550.962ZM550.098 117.936C549.81 118.416 549.33 118.8 548.658 119.088C548.082 119.376 547.65 119.712 547.362 120.096C547.074 120.384 546.93 120.912 546.93 121.68H554.562C554.754 121.584 554.946 121.392 555.138 121.104C555.33 120.816 555.426 120.576 555.426 120.384C555.426 120 555.234 119.472 554.85 118.8C554.562 118.032 554.418 117.552 554.418 117.36C554.418 117.168 554.658 116.928 555.138 116.64C555.618 116.352 556.002 116.208 556.29 116.208C555.906 116.016 555.618 115.584 555.426 114.912C555.33 114.24 555.186 113.712 554.994 113.328C554.898 112.848 554.61 112.608 554.13 112.608C552.978 112.608 551.586 113.472 549.954 115.2C548.418 116.832 547.554 117.744 547.362 117.936H550.098ZM627.461 29.664C627.557 29.472 628.565 29.28 630.485 29.088C632.405 28.8 634.037 28.656 635.381 28.656C636.149 28.656 637.061 28.896 638.117 29.376C639.269 29.76 639.845 30.144 639.845 30.528V41.184C639.845 42.432 638.981 43.056 637.253 43.056C634.949 43.056 632.405 42.864 629.621 42.48C626.933 42.096 625.589 41.376 625.589 40.32V31.248L627.461 29.664ZM628.757 33.12C628.757 34.08 628.949 35.088 629.333 36.144C629.717 37.104 630.341 37.584 631.205 37.584C632.933 37.584 634.133 37.44 634.805 37.152C635.573 36.864 635.957 36.144 635.957 34.992C635.957 34.512 635.765 33.888 635.381 33.12C635.093 33.216 634.709 33.408 634.229 33.696C633.845 33.984 633.365 34.128 632.789 34.128L633.797 33.12H628.757ZM629.189 124.56C628.997 123.888 628.565 123.072 627.893 122.112C627.221 121.152 626.789 120.24 626.597 119.376C625.253 113.808 624.389 108 624.005 101.952C623.621 95.808 623.429 88.56 623.429 80.208V75.6C623.429 69.552 623.957 64.944 625.013 61.776C626.069 58.608 628.373 57.024 631.925 57.024C635.477 57.024 637.877 58.56 639.125 61.632C640.469 64.608 641.141 68.496 641.141 73.296C641.141 78.576 640.757 84.384 639.989 90.72C639.317 95.616 638.981 99.936 638.981 103.68C638.981 106.08 639.173 109.584 639.557 114.192C639.653 115.344 639.749 116.736 639.845 118.368C639.941 120 639.989 121.92 639.989 124.128C639.989 125.664 639.365 126.432 638.117 126.432C636.965 126.24 635.477 125.952 633.653 125.568C631.925 125.184 630.437 124.848 629.189 124.56ZM630.629 66.096C634.469 66.096 636.389 65.52 636.389 64.368C636.389 63.216 636.245 62.448 635.957 62.064C635.765 61.68 635.333 61.488 634.661 61.488C634.469 61.488 634.037 61.68 633.365 62.064C632.693 62.352 632.213 62.496 631.925 62.496C631.733 62.496 631.493 62.352 631.205 62.064C630.917 61.68 630.533 61.488 630.053 61.488C629.381 61.488 628.853 61.632 628.469 61.92C628.181 62.112 627.845 62.592 627.461 63.36C628.229 64.128 628.949 64.512 629.621 64.512L630.053 64.368L629.189 66.096H630.629ZM627.317 70.272C627.317 70.464 627.413 70.704 627.605 70.992C627.893 71.184 628.133 71.28 628.325 71.28C629.189 71.28 630.245 70.656 631.493 69.408C632.741 68.064 633.509 67.248 633.797 66.96H633.221C632.453 66.96 631.301 67.2 629.765 67.68C628.229 68.16 627.461 68.976 627.461 70.128L627.317 70.272ZM636.677 67.248C634.181 67.248 631.685 69.456 629.189 73.872C630.533 73.392 632.069 73.152 633.797 73.152C634.661 73.152 635.285 73.056 635.669 72.864C636.053 72.672 636.293 72.192 636.389 71.424C636.581 70.56 636.677 69.168 636.677 67.248ZM627.461 79.2C627.461 79.392 627.557 79.632 627.749 79.92C628.037 80.112 628.229 80.208 628.325 80.208C630.437 79.056 632.501 77.328 634.517 75.024L633.221 74.88C631.685 74.88 630.341 75.264 629.189 76.032C628.037 76.704 627.461 77.76 627.461 79.2ZM636.389 75.888C633.797 77.232 632.021 78.96 631.061 81.072L632.357 81.216C633.029 81.216 633.845 81.168 634.805 81.072C635.861 80.88 636.389 80.592 636.389 80.208V75.888ZM631.061 89.28C635.381 89.28 637.541 87.168 637.541 82.944H636.389L631.061 88.272V89.28ZM631.061 83.664C629.141 83.664 628.181 84.48 628.181 86.112L628.325 87.552L631.925 83.808L631.061 83.664ZM632.933 90.72C631.685 90.72 630.485 91.104 629.333 91.872C628.181 92.64 627.605 93.6 627.605 94.752C628.661 94.752 629.813 94.368 631.061 93.6C632.309 92.736 632.933 91.776 632.933 90.72ZM635.381 91.728C634.997 91.92 633.941 92.784 632.213 94.32C630.581 95.856 629.285 97.104 628.325 98.064H635.381C635.957 98.064 636.293 97.488 636.389 96.336C636.581 95.088 636.677 93.552 636.677 91.728H635.381ZM628.325 101.52C628.325 102.768 628.613 103.392 629.189 103.392L633.797 99.792V98.928C630.149 99.408 628.325 100.272 628.325 101.52ZM629.189 107.136C631.589 107.136 633.221 106.656 634.085 105.696C635.045 104.736 635.525 103.056 635.525 100.656H634.517L629.189 105.984V107.136ZM629.189 110.448C629.189 110.736 629.285 111.072 629.477 111.456C629.669 111.744 629.861 111.984 630.053 112.176L633.797 108.72L632.357 108.576C630.533 108.576 629.477 109.2 629.189 110.448ZM629.189 118.512C629.573 119.568 630.341 120.24 631.493 120.528C632.741 120.72 634.181 120.816 635.813 120.816C635.813 119.952 635.525 119.232 634.949 118.656C634.469 117.984 634.229 117.6 634.229 117.504C634.229 117.504 634.517 117.36 635.093 117.072C635.669 116.784 635.957 114.576 635.957 110.448H633.797C633.605 110.448 632.885 111.216 631.637 112.752C630.485 114.288 629.909 115.248 629.909 115.632V115.776H633.797L629.189 118.512ZM659.014 108.576C657.766 106.176 656.95 104.16 656.566 102.528C656.278 100.896 656.134 98.784 656.134 96.192C656.134 88.8 657.574 82.368 660.454 76.896C663.334 71.328 667.366 67.056 672.55 64.08C677.734 61.104 683.734 59.616 690.55 59.616L693.718 59.76L691.846 60.624C692.134 60.624 693.286 60.48 695.302 60.192C696.358 59.904 697.366 59.76 698.326 59.76C704.662 59.76 708.454 60.576 709.702 62.208L709.846 65.952C709.846 67.104 709.654 68.736 709.27 70.848C708.79 72.576 708.55 74.256 708.55 75.888C704.422 75.888 699.766 74.304 694.582 71.136H682.198C681.334 71.136 680.134 71.904 678.598 73.44C677.062 74.88 675.574 76.656 674.134 78.768C672.79 80.88 671.926 82.8 671.542 84.528C671.446 85.104 671.254 86.256 670.966 87.984C670.774 89.616 670.342 90.864 669.67 91.728C670.63 97.392 671.974 101.808 673.702 104.976C675.526 108.144 678.646 111.12 683.062 113.904V114.912C684.022 114.912 685.27 115.008 686.806 115.2C688.15 115.488 689.398 115.632 690.55 115.632C694.006 115.632 697.126 115.392 699.91 114.912C702.79 114.432 705.478 113.472 707.974 112.032C708.166 112.8 708.646 114.384 709.414 116.784C710.278 119.184 710.71 121.056 710.71 122.4C710.71 124.032 709.75 125.136 707.83 125.712C706.006 126.192 703.462 126.432 700.198 126.432C694.342 126.432 689.11 126.24 684.502 125.856C679.99 125.376 675.574 124.176 671.254 122.256C666.934 120.24 663.766 117.168 661.75 113.04C661.558 112.656 661.366 112.08 661.174 111.312C661.078 110.448 660.886 109.824 660.598 109.44C660.406 108.96 659.878 108.672 659.014 108.576ZM659.878 96.912C660.55 99.504 661.558 102.528 662.902 105.984C664.342 109.44 665.398 111.168 666.07 111.168L669.67 108.576L669.814 108.144C669.814 106.608 669.334 104.592 668.374 102.096C667.51 99.504 666.502 97.776 665.35 96.912L666.07 96.192C665.974 95.808 665.926 95.184 665.926 94.32C665.926 90.576 666.502 86.4 667.654 81.792C668.806 77.184 670.102 74.88 671.542 74.88C672.502 72.768 673.606 71.184 674.854 70.128C676.198 69.072 677.542 68.4 678.886 68.112C680.23 67.728 682.054 67.392 684.358 67.104C688.294 66.912 691.414 66.192 693.718 64.944C693.238 64.848 692.614 64.704 691.846 64.512C691.174 64.32 690.598 64.224 690.118 64.224C687.622 64.224 684.454 64.752 680.614 65.808C676.87 66.864 673.846 68.064 671.542 69.408C669.238 70.752 666.838 74.304 664.342 80.064C663.766 81.6 662.902 84.96 661.75 90.144C660.694 94.656 660.07 96.912 659.878 96.912ZM700.342 65.232C698.614 66.288 697.75 67.104 697.75 67.68L703.366 69.408V65.664L700.342 65.232ZM667.798 112.608C667.798 113.472 668.47 113.904 669.814 113.904C670.678 113.904 671.302 113.712 671.686 113.328C672.07 112.944 672.55 112.224 673.126 111.168C673.126 110.976 672.934 110.688 672.55 110.304C672.166 109.92 671.83 109.68 671.542 109.584L671.11 109.44C670.534 109.44 669.814 109.92 668.95 110.88C668.182 111.84 667.798 112.416 667.798 112.608ZM672.262 116.928C672.262 117.888 673.222 118.368 675.142 118.368C675.91 118.368 676.486 118.176 676.87 117.792C677.35 117.408 677.926 116.688 678.598 115.632C678.502 115.152 678.31 114.864 678.022 114.768C677.734 114.672 677.302 114.624 676.726 114.624C675.766 114.624 674.758 114.816 673.702 115.2C672.742 115.584 672.262 116.16 672.262 116.928ZM678.598 119.664C678.598 120.048 678.886 120.384 679.462 120.672C680.134 120.864 680.71 120.96 681.19 120.96C681.478 120.96 681.814 120.864 682.198 120.672C682.678 120.48 682.966 120.288 683.062 120.096C683.062 119.328 682.918 118.848 682.63 118.656C682.438 118.368 682.006 118.224 681.334 118.224C679.51 118.224 678.598 118.704 678.598 119.664ZM704.95 118.512C703.51 118.608 702.31 118.896 701.35 119.376C700.39 119.856 699.622 120.672 699.046 121.824L700.342 121.968C701.782 121.968 702.886 121.728 703.654 121.248C704.518 120.768 704.95 119.856 704.95 118.512ZM687.814 119.376C687.238 119.376 686.614 119.52 685.942 119.808C685.366 120.096 685.03 120.48 684.934 120.96L690.838 121.536C690.742 121.056 690.31 120.576 689.542 120.096C688.774 119.616 688.198 119.376 687.814 119.376ZM692.71 120.096C692.71 120.576 692.806 121.008 692.998 121.392C693.286 121.68 693.622 121.824 694.006 121.824C694.582 121.824 695.158 121.68 695.734 121.392C696.406 121.008 696.886 120.576 697.174 120.096H692.71Z" />
    <path
       style="fill:#47bbc2;stroke-width:1.41682446;fill-opacity:1;stroke:#000000"
       id="path827-3"
       d="m 700.31276,31.868776 c -1.038,-0.853757 -2.48197,-1.66808 -4.33206,-2.441226 -1.72769,-0.921993 -2.7508,-1.264017 -3.06977,-1.027334 L 689.446,29.66735 677.87734,43.732491 c -1.34657,1.637165 -1.22748,3.606937 0.35885,5.909783 1.66047,2.36383 3.38083,4.278323 5.16025,5.741907 1.33457,1.097687 2.79873,0.677359 4.39014,-1.257472 l 13.58849,-16.520865 c 0.48967,-0.595333 0.53203,-1.55439 0.13199,-2.881514 -0.20349,-1.414975 -0.60116,-2.367693 -1.1943,-2.855554 z m -10.80604,2.711823 3.89177,3.200998 -2.06598,0.925281 c 0.44486,0.365896 1.00081,0.444746 1.66463,0.242176 0.73796,-0.141586 1.27984,-0.195371 1.62468,-0.161256 -0.68275,1.434595 -1.33138,2.525707 -1.94346,3.269873 -1.46899,1.785996 -2.68414,2.658341 -3.64453,2.616979 -0.88625,0.01962 -1.99589,-0.519723 -3.33046,-1.61741 -0.66728,-0.548844 -0.53864,-1.689215 0.38895,-3.421477 1.05001,-1.881095 2.19024,-3.566833 3.4144,-5.055164 z"
       inkscape:connector-curvature="0" />
  </g>
</svg>
